<svg xmlns="http://www.w3.org/2000/svg" version="1.1" xmlns:xlink="http://www.w3.org/1999/xlink" xmlns:svgjs="http://svgjs.dev/svgjs" width="1440" height="560" preserveAspectRatio="none" viewBox="0 0 1440 560"><g mask="url(&quot;#SvgjsMask1007&quot;)" fill="none"><rect width="1440" height="560" x="0" y="0" fill="rgba(241, 248, 255, 1)"></rect><path d="M0 0L396.31 0L0 52.78z" fill="rgba(255, 255, 255, .1)"></path><path d="M0 52.78L396.31 0L676.98 0L0 315.40999999999997z" fill="rgba(255, 255, 255, .075)"></path><path d="M0 315.40999999999997L676.98 0L1101.78 0L0 344.23999999999995z" fill="rgba(255, 255, 255, .05)"></path><path d="M0 344.23999999999995L1101.78 0L1290.3 0L0 495.92999999999995z" fill="rgba(255, 255, 255, .025)"></path><path d="M1440 560L764.82 560L1440 465.78z" fill="rgba(0, 0, 0, .1)"></path><path d="M1440 465.78L764.82 560L494.40000000000003 560L1440 349.78999999999996z" fill="rgba(0, 0, 0, .075)"></path><path d="M1440 349.79L494.4000000000001 560L375.86000000000007 560L1440 309.99z" fill="rgba(0, 0, 0, .05)"></path><path d="M1440 309.99L375.8600000000001 560L171.36000000000013 560L1440 221.47000000000003z" fill="rgba(0, 0, 0, .025)"></path></g><defs><mask id="SvgjsMask1007"><rect width="1440" height="560" fill="#ffffff"></rect></mask></defs></svg>