<svg xmlns="http://www.w3.org/2000/svg" version="1.1" xmlns:xlink="http://www.w3.org/1999/xlink" xmlns:svgjs="http://svgjs.dev/svgjs" width="1440" height="560" preserveAspectRatio="none" viewBox="0 0 1440 560"><g mask="url(&quot;#SvgjsMask1009&quot;)" fill="none"><rect width="1440" height="560" x="0" y="0" fill="rgba(238, 249, 255, 1)"></rect><path d="M0,413.509C93.962,405.761,198.967,483.896,276.599,430.396C354.658,376.602,313.224,246.759,360.883,164.81C416.855,68.568,561.692,27.869,574.984,-82.67C588.087,-191.633,497.77,-286.112,424.982,-368.249C352.795,-449.708,266.981,-523.276,161.333,-549.451C57.74,-575.117,-47.338,-540.026,-149.953,-510.693C-253.271,-481.159,-374.015,-465.694,-436.784,-378.476C-498.93,-292.123,-479.051,-173.339,-468.963,-67.427C-460.665,19.696,-408.842,91.455,-384.031,175.381C-353.872,277.397,-397.963,422.501,-307.553,478.562C-216.657,534.924,-106.59,422.298,0,413.509" fill="#ccedff"></path><path d="M1440 1033.297C1532.795 1029.254 1625.709 1020.463 1706.712 975.012 1790.838 927.808 1845.415 848.213 1905.022 772.3679999999999 1982.6979999999999 673.532 2101.63 589.423 2108.399 463.899 2115.303 335.884 2039.377 207.67899999999997 1939.8319999999999 126.894 1845.239 50.127999999999986 1708.655 77.43 1591.411 44.341999999999985 1475.847 11.727999999999952 1368.819-107.64300000000003 1256.177-66.043 1142.152-23.932000000000016 1136.872 137.49900000000002 1067.989 237.64999999999998 1009.018 323.39 893.73 376.345 880.885 479.611 868.058 582.731 954.162 667.854 1003.073 759.538 1048.729 845.119 1075.7269999999999 947.418 1157.924 998.919 1239.85 1050.25 1343.413 1037.505 1440 1033.297" fill="#ffffff"></path></g><defs><mask id="SvgjsMask1009"><rect width="1440" height="560" fill="#ffffff"></rect></mask></defs></svg>