<svg xmlns="http://www.w3.org/2000/svg" version="1.1" xmlns:xlink="http://www.w3.org/1999/xlink" xmlns:svgjs="http://svgjs.dev/svgjs" width="1440" height="560" preserveAspectRatio="none" viewBox="0 0 1440 560"><g mask="url(&quot;#SvgjsMask1082&quot;)" fill="none"><rect width="1440" height="560" x="0" y="0" fill="rgba(243, 251, 255, 1)"></rect><path d="M0,611.995C115.099,641.738,247.655,603.603,339.076,527.612C427.802,453.861,454.42,330.501,475.186,217.01C492.498,122.398,456.782,31.398,447.388,-64.325C437.434,-165.757,471.288,-275.402,418.317,-362.474C362.718,-453.868,262.778,-516.044,158.38,-539.393C56.772,-562.118,-51.029,-536.293,-143.315,-488.087C-226.279,-444.751,-276.647,-362.632,-328.805,-284.911C-375.217,-215.752,-406.6,-141.842,-429.43,-61.743C-455.558,29.925,-508.708,127.566,-471.369,215.267C-433.993,303.055,-315.494,315.891,-242.495,377.33C-154.657,451.258,-111.157,583.271,0,611.995" fill="#d0efff"></path><path d="M1440 1063.681C1565.718 1059.546 1688.392 1175.737 1804.283 1126.835 1920.185 1077.9279999999999 1961.268 936.351 2013.242 821.7909999999999 2065.099 707.488 2115.2219999999998 589.498 2104.811 464.415 2094.057 335.214 2058.177 191.95800000000003 1954.355 114.30799999999999 1852.507 38.134000000000015 1708.409 93.38600000000002 1582.722 73.935 1478.154 57.75200000000001 1379.707-20.90599999999995 1278.4180000000001 9.701999999999998 1177.243 40.27499999999998 1125.429 147.81 1060.995 231.591 1000.299 310.51099999999997 935.428 387.19100000000003 913.421 484.289 890.303 586.287 911.763 688.84 934.2080000000001 790.988 962.0740000000001 917.809 945.692 1089.6950000000002 1059.9850000000001 1151.315 1176.775 1214.281 1307.3890000000001 1068.0430000000001 1440 1063.681" fill="#ffffff"></path></g><defs><mask id="SvgjsMask1082"><rect width="1440" height="560" fill="#ffffff"></rect></mask></defs></svg>